<svg viewBox="0,0,160.13643,139.12137" height="139.12137" width="160.13643" xmlns:xlink="http://www.w3.org/1999/xlink" xmlns="http://www.w3.org/2000/svg" version="1.1"><g transform="translate(-137.2696,-110.43932)"><g style="mix-blend-mode: normal" stroke-dashoffset="0" stroke-dasharray="" stroke-miterlimit="10" stroke-linejoin="miter" stroke-linecap="butt" stroke="none" fill-rule="nonzero" fill="#ffffff" data-paper-data="{&quot;isPaintingLayer&quot;:true}"><g><g stroke-width="0"><path d="M254.18984,178.96857l3.59554,2.71764l3.67484,-1.98223l-2.40383,3.0105l1.66841,4.25987l-3.23189,-2.78837l-4.03848,2.05296l2.69069,-3.04939z"></path><path d="M260.38642,183.55066l-2.06542,0.50405l-0.95503,1.88954l-0.49902,-2.05925l-1.89457,-0.9612l2.05925,-0.49902l0.95503,-1.88954l0.50518,2.05422z"></path></g><g stroke-width="0"><path d="M281.11867,145.35395l3.59554,2.71764l3.67484,-1.98223l-2.40383,3.0105l1.66841,4.25987l-3.23189,-2.78837l-4.03848,2.05296l2.69069,-3.04939z"></path><path d="M287.31526,149.93604l-2.06542,0.50405l-0.95503,1.88954l-0.49902,-2.05925l-1.89457,-0.9612l2.05925,-0.49902l0.95503,-1.88954l0.50518,2.05422z"></path></g><g stroke-width="0"><path d="M286.50444,159.46837l3.59554,2.71764l3.67484,-1.98223l-2.40383,3.0105l1.66841,4.25987l-3.23189,-2.78837l-4.03848,2.05296l2.69069,-3.04939z"></path><path d="M292.70103,164.05047l-2.06542,0.50405l-0.95503,1.88954l-0.49902,-2.05925l-1.89457,-0.9612l2.05925,-0.49902l0.95503,-1.88954l0.50518,2.05422z"></path></g><g stroke-width="0"><path d="M290.13565,170.90482l3.59554,2.71764l3.67484,-1.98223l-2.40383,3.0105l1.66841,4.25987l-3.23189,-2.78837l-4.03848,2.05296l2.69069,-3.04939z"></path><path d="M296.33224,175.48691l-2.06542,0.50405l-0.95503,1.88954l-0.49902,-2.05925l-1.89457,-0.9612l2.05925,-0.49902l0.95503,-1.88954l0.50518,2.05422z"></path></g><g stroke-width="0"><path d="M288.73304,186.39721l3.59554,2.71764l3.67484,-1.98223l-2.40383,3.0105l1.66841,4.25987l-3.23189,-2.78837l-4.03848,2.05296l2.69069,-3.04939z"></path><path d="M294.92962,190.97931l-2.06542,0.50405l-0.95503,1.88954l-0.49902,-2.05925l-1.89457,-0.9612l2.05925,-0.49902l0.95503,-1.88954l0.50518,2.05422z"></path></g><g stroke-width="0"><path d="M237.28967,157.0684l3.59554,2.71764l3.67484,-1.98223l-2.40383,3.0105l1.66841,4.25987l-3.23189,-2.78837l-4.03848,2.05296l2.69069,-3.04939z"></path><path d="M243.48626,161.6505l-2.06542,0.50405l-0.95503,1.88954l-0.49902,-2.05925l-1.89457,-0.9612l2.05925,-0.49902l0.95503,-1.88954l0.50518,2.05422z"></path></g><g stroke-width="0"><path d="M217.04661,175.06853l3.59554,2.71764l3.67484,-1.98223l-2.40383,3.0105l1.66841,4.25987l-3.23189,-2.78837l-4.03848,2.05296l2.69069,-3.04939z"></path><path d="M223.2432,179.65062l-2.06542,0.50405l-0.95503,1.88954l-0.49902,-2.05925l-1.89457,-0.9612l2.05925,-0.49902l0.95503,-1.88954l0.50518,2.05422z"></path></g><g stroke-width="0"><path d="M230.04674,209.42601l3.59554,2.71764l3.67484,-1.98223l-2.40383,3.0105l1.66841,4.25987l-3.23189,-2.78837l-4.03848,2.05296l2.69069,-3.04939z"></path><path d="M236.24333,214.00811l-2.06542,0.50405l-0.95503,1.88954l-0.49902,-2.05925l-1.89457,-0.9612l2.05925,-0.49902l0.95503,-1.88954l0.50518,2.05422z"></path></g><g stroke-width="0"><path d="M201.81789,159.83981l3.59554,2.71764l3.67484,-1.98223l-2.40383,3.0105l1.66841,4.25987l-3.23189,-2.78837l-4.03848,2.05296l2.69069,-3.04939z"></path><path d="M208.01448,164.4219l-2.06542,0.50405l-0.95503,1.88954l-0.49902,-2.05925l-1.89457,-0.9612l2.05925,-0.49902l0.95503,-1.88954l0.50518,2.05422z"></path></g><g stroke-width="0"><path d="M192.90351,140.71105l3.59554,2.71764l3.67484,-1.98223l-2.40383,3.0105l1.66841,4.25987l-3.23189,-2.78837l-4.03848,2.05296l2.69069,-3.04939z"></path><path d="M199.1001,145.29314l-2.06542,0.50405l-0.95503,1.88954l-0.49902,-2.05925l-1.89457,-0.9612l2.05925,-0.49902l0.95503,-1.88954l0.50518,2.05422z"></path></g><g stroke-width="0"><path d="M182.87484,142.38249l3.59554,2.71764l3.67484,-1.98223l-2.40383,3.0105l1.66841,4.25987l-3.23189,-2.78837l-4.03848,2.05296l2.69069,-3.04939z"></path><path d="M189.07143,146.96459l-2.06542,0.50405l-0.95503,1.88954l-0.49902,-2.05925l-1.89457,-0.9612l2.05925,-0.49902l0.95503,-1.88954l0.50518,2.05422z"></path></g><g stroke-width="0"><path d="M189.56062,110.43932l3.59554,2.71764l3.67484,-1.98223l-2.40383,3.0105l1.66841,4.25987l-3.23189,-2.78837l-4.03848,2.05296l2.69069,-3.04939z"></path><path d="M195.75721,115.02141l-2.06542,0.50405l-0.95503,1.88954l-0.49902,-2.05925l-1.89457,-0.9612l2.05925,-0.49902l0.95503,-1.88954l0.50518,2.05422z"></path></g><g stroke-width="0"><path d="M201.44645,112.85363l3.59554,2.71764l3.67484,-1.98223l-2.40383,3.0105l1.66841,4.25987l-3.23189,-2.78837l-4.03848,2.05296l2.69069,-3.04939z"></path><path d="M207.64304,117.43572l-2.06542,0.50405l-0.95503,1.88954l-0.49902,-2.05925l-1.89457,-0.9612l2.05925,-0.49902l0.95503,-1.88954l0.50518,2.05422z"></path></g><g stroke-width="0"><path d="M241.00399,208.86886l3.59554,2.71764l3.67484,-1.98223l-2.40383,3.0105l1.66841,4.25987l-3.23189,-2.78837l-4.03848,2.05296l2.69069,-3.04939z"></path><path d="M247.20058,213.45096l-2.06542,0.50405l-0.95503,1.88954l-0.49902,-2.05925l-1.89457,-0.9612l2.05925,-0.49902l0.95503,-1.88954l0.50518,2.05422z"></path></g><g stroke-width="0"><path d="M250.10408,206.08312l3.59554,2.71764l3.67484,-1.98223l-2.40383,3.0105l1.66841,4.25987l-3.23189,-2.78837l-4.03848,2.05296l2.69069,-3.04939z"></path><path d="M256.30067,210.66522l-2.06542,0.50405l-0.95503,1.88954l-0.49902,-2.05925l-1.89457,-0.9612l2.05925,-0.49902l0.95503,-1.88954l0.50518,2.05422z"></path></g><g stroke-width="0"><path d="M227.261,241.5549l3.59554,2.71764l3.67484,-1.98223l-2.40383,3.0105l1.66841,4.25987l-3.23189,-2.78837l-4.03848,2.05296l2.69069,-3.04939z"></path><path d="M233.45759,246.137l-2.06542,0.50405l-0.95503,1.88954l-0.49902,-2.05925l-1.89457,-0.9612l2.05925,-0.49902l0.95503,-1.88954l0.50518,2.05422z"></path></g><g stroke-width="0"><path d="M269.04713,235.42627l3.59554,2.71764l3.67484,-1.98223l-2.40383,3.0105l1.66841,4.25987l-3.23189,-2.78837l-4.03848,2.05296l2.69069,-3.04939z"></path><path d="M275.24372,240.00837l-2.06542,0.50405l-0.95503,1.88954l-0.49902,-2.05925l-1.89457,-0.9612l2.05925,-0.49902l0.95503,-1.88954l0.50518,2.05422z"></path></g><text style="mix-blend-mode: normal" text-anchor="start" font-weight="normal" font-family="Sans Serif" stroke-dashoffset="0" stroke-dasharray="" stroke-miterlimit="10" stroke-linejoin="miter" stroke-linecap="butt" stroke-width="1" stroke="none" fill-rule="nonzero" fill="#ffffff" xml:space="preserve" font-size="40" transform="translate(137.43334,127.26207) scale(0.32748,0.32748)"><tspan dy="0" x="0">ORION</tspan></text></g></g></g></svg>