<svg version="1.1" xmlns="http://www.w3.org/2000/svg" xmlns:xlink="http://www.w3.org/1999/xlink" width="267.6997" height="125.3349" viewBox="0,0,267.6997,125.3349"><g transform="translate(-106.07449,-116.23892)"><g data-paper-data="{&quot;isPaintingLayer&quot;:true}" fill="#ffffff" fill-rule="nonzero" stroke="none" stroke-linecap="butt" stroke-linejoin="miter" stroke-miterlimit="10" stroke-dasharray="" stroke-dashoffset="0" style="mix-blend-mode: normal"><g stroke-width="0"><path d="M291.28448,186.53281l1.05169,4.3387l4.07093,0.7878l-3.74107,0.80332l-1.38156,4.3193l-0.74123,-4.17183l-4.38527,-0.95079l3.97779,-0.65585z"/><path d="M293.16665,193.93345l-1.8977,-0.90422l-1.92098,0.85377l0.90422,-1.8977l-0.84989,-1.92098l1.89382,0.90422l1.92098,-0.84989l-0.90422,1.89382z"/></g><g stroke-width="0"><path d="M371.76395,194.57377l-1.17587,4.30378l3.18611,2.65833l-3.66345,-1.10602l-3.29866,3.11238l1.36991,-4.00496l-3.38015,-2.95715l3.79928,1.35051z"/><path d="M369.83521,201.96277l-1.22244,-1.71142l-2.09562,-0.1824l1.71142,-1.22244l0.1824,-2.09174l1.22244,1.70754l2.09174,0.1824l-1.70754,1.22244z"/></g><g stroke-width="0"><path d="M254.50251,165.8056l1.80068,4.08257l4.14467,0.05433l-3.53538,1.45141l-0.59764,4.49782l-1.46693,-3.97391l-4.48229,-0.16299l3.79928,-1.34663z"/><path d="M257.66145,172.75606l-2.02576,-0.55495l-1.73859,1.17976l0.55107,-2.02964l-1.17587,-1.73859l2.02576,0.55495l1.74247,-1.17976l-0.55495,2.02964z"/></g><g stroke-width="0"><path d="M356.86178,234.65052l-0.9081,3.32582l2.46041,2.04905l-2.8252,-0.85377l-2.54967,2.4022l1.05945,-3.09298l-2.60788,-2.27801l2.92998,1.04005z"/><path d="M355.37545,240.35526l-0.94691,-1.31946l-1.6144,-0.14359l1.31946,-0.94303l0.13971,-1.6144l0.94691,1.31946l1.6144,0.13971l-1.31946,0.94303z"/></g><path d="M294.80822,222.7055l0.67525,2.9882l2.58848,-1.63769l-1.63381,2.59236l2.9882,0.67525l-2.9882,0.67525l1.63381,2.58848l-2.58848,-1.63381l-0.67525,2.98431l-0.67525,-2.98431l-2.58848,1.63381l1.63381,-2.58848l-2.9882,-0.67525l2.9882,-0.67525l-1.63381,-2.59236l2.58848,1.63769z" stroke-width="0"/><path d="M177.83007,148.14808l0.67525,2.9882l2.58848,-1.63769l-1.63381,2.59236l2.98431,0.67525l-2.98431,0.67525l1.63381,2.58848l-2.58848,-1.63381l-0.67525,2.98431l-0.67525,-2.98431l-2.59236,1.63381l1.63769,-2.58848l-2.9882,-0.67525l2.9882,-0.67525l-1.63769,-2.59236l2.59236,1.63769z" stroke-width="0"/><path d="M230.36021,148.48183l-0.48898,1.82784l1.88606,0.15523l-1.73082,0.76063l1.05557,1.57171l-1.67649,-0.88094l-0.57047,1.80068l-0.35315,-1.85501l-1.76575,0.67914l1.23021,-1.43589l-1.63381,-0.95855l1.89382,0.06597l-0.27165,-1.87053l1.12931,1.51738z" stroke-width="0"/><text transform="translate(106.22581,129.32122) scale(0.30264,0.30264)" font-size="40" xml:space="preserve" fill="#ffffff" fill-rule="nonzero" stroke="none" stroke-width="1" stroke-linecap="butt" stroke-linejoin="miter" stroke-miterlimit="10" stroke-dasharray="" stroke-dashoffset="0" font-family="Sans Serif" font-weight="normal" text-anchor="start" style="mix-blend-mode: normal"><tspan x="0" dy="0">URSA MAIOR</tspan></text></g></g></svg>